<svg width="34" height="34" viewBox="0 0 34 34" fill="none" xmlns="http://www.w3.org/2000/svg">
<circle cx="17" cy="17" r="17" fill="#3E6EF1"/>
<path d="M22.8546 9.73233L14.4205 13.9494C14.2166 14.0518 14.0511 14.2173 13.9487 14.4212L9.73163 22.8553C9.65117 23.0161 9.61317 23.1948 9.62124 23.3744C9.62931 23.554 9.68319 23.7286 9.77774 23.8815C9.8723 24.0344 10.0044 24.1606 10.1615 24.2481C10.3186 24.3356 10.4954 24.3815 10.6752 24.3813C10.8389 24.3811 11.0003 24.3432 11.147 24.2706L19.5811 20.0536C19.785 19.9511 19.9504 19.7857 20.0529 19.5818L24.2699 11.1477C24.3694 10.9496 24.404 10.7253 24.3687 10.5065C24.3334 10.2877 24.2301 10.0856 24.0734 9.9289C23.9166 9.7722 23.7145 9.66886 23.4957 9.63357C23.277 9.59828 23.0526 9.63284 22.8546 9.73233Z" fill="#F8F9FC"/>
</svg>
